<?xml version="1.0" encoding="utf-8"?>
<!-- Generator: Adobe Illustrator 23.1.0, SVG Export Plug-In . SVG Version: 6.00 Build 0)  -->
<svg version="1.1" id="Layer_1" xmlns="http://www.w3.org/2000/svg" xmlns:xlink="http://www.w3.org/1999/xlink" x="0px" y="0px"
	 viewBox="0 0 455.73 271.38" style="enable-background:new 0 0 455.73 271.38;" xml:space="preserve">
<style type="text/css">
	.st0{fill:#FFFFFF;}
</style>
<g>
	<g>
		<path class="st0" d="M143.73,0c-1.17,0.17-1.09,1.58-1,3c0,42,0,84,0,126c43,0,86,0,129,0C264.82,50.24,222.43,6.97,143.73,0z
			 M162.73,109c0-29,0-58,0-87c47.55,10.45,76.17,39.83,87,87C220.73,109,191.73,109,162.73,109z"/>
		<path class="st0" d="M128.73,141c0-42.33,0-84.67,0-127c-77.09,1.99-136,62.06-128,144c6.47,66.26,66.03,118.38,140,113
			c65.08-4.74,112.58-54.69,117-129C215.06,141.33,169.73,143.33,128.73,141z M50.73,219c-18.27-18.46-30.69-45.35-31-75
			c-0.63-59.76,37.87-93.92,86-108c1.71,0.21,2.59-1.71,3,0c0,41.67,0,83.33,0,125c40.33,2.33,85,0.33,127,1
			C224.98,249,109.8,278.7,50.73,219z"/>
	</g>
	<rect x="356.73" y="120.38" class="st0" width="20" height="151"/>
	<rect x="435.73" y="110.39" class="st0" width="20" height="160.99"/>
	<rect x="396.73" y="44.38" class="st0" width="20" height="227"/>
</g>
</svg>
