<?xml version="1.0" encoding="utf-8"?>
<!-- Generator: Adobe Illustrator 23.1.0, SVG Export Plug-In . SVG Version: 6.00 Build 0)  -->
<svg version="1.1" id="Layer_1" xmlns="http://www.w3.org/2000/svg" xmlns:xlink="http://www.w3.org/1999/xlink" x="0px" y="0px"
	 viewBox="0 0 364.1 271.38" style="enable-background:new 0 0 364.1 271.38;" xml:space="preserve">
<style type="text/css">
	.st0{display:none;fill-rule:evenodd;clip-rule:evenodd;fill:#616160;}
	.st1{fill:#FFFFFF;}
</style>
<rect x="-69.29" y="-39.81" class="st0" width="560.18" height="439.12"/>
<g>
	<g id="XMLID_2_">
		<g>
			<path class="st1" d="M17.45,39.84c10.03-2.81,26.24-1.02,39-1.02c27.01,0,51.95,0,79.37,0c18.43,0,42.69-4.37,44.48,11.29
				c0.77,6.74-3.45,12.28-8.21,14.02c-4.26,1.56-11.4,0.68-17.79,0.68c-41.73,0-88.93,0-128.98,0c0,60.21,0,120.43,0,180.64
				c93.96,0.79,189.42,0.11,283.95,0.34c0.62-26.65,0.34-62.13,0.34-92.71c0-17.19-3.22-36.3,13-36.27
				c7.29,0.02,10.79,4.77,12.66,10.95c0,40.71,0,81.43,0,122.14c-2.07,10.54-8.78,18.76-18.82,20.87
				c-5.16,1.08-11.63,0.34-18.13,0.34c-86.81,0-174.97,0-261.37,0c-6.26,0-13.19,0.8-18.48-0.34C8.23,268.55,2.45,260.51,0,249.9
				c0-63.18,0-126.36,0-189.53C1.95,50.01,7.84,42.53,17.45,39.84z"/>
			<path class="st1" d="M89.98,91.85c16.14-0.39,13.34,18.62,13.34,35.93c0,20.78,0,36.41,0,58.16c0,16.92,2.99,35.97-13.68,35.23
				c-6.45-0.29-11.01-4.91-11.98-11.29c-1.23-8.17-0.34-19.71-0.34-28.39c0-19.04,0-35.65,0-56.11
				C77.32,110.15,74.83,92.2,89.98,91.85z"/>
			<path class="st1" d="M142.66,125.03c3.54-9.79,19.42-10.39,23.95-1.02c2.06,4.25,1.37,14.49,1.37,21.89c0,16.61,0,30.01,0,46.53
				c0,7.58,0.79,16.96-1.37,21.55c-5.26,11.16-22.12,8.38-24.29-3.43c-1.07-5.86-0.34-15.31-0.34-21.89c0-15.38,0-26.85,0-43.11
				C141.98,139.98,140.14,132.01,142.66,125.03z"/>
			<path class="st1" d="M207.32,152.4c3.97-10.66,20.58-9.99,24.29,0.34c2.49,6.94,0.68,21.34,0.68,30.11
				c0,17.37,3.66,37.5-11.98,38.32c-7.91,0.41-12.37-4.96-13.34-10.27c-1.52-8.33-0.34-19.79-0.34-30.11
				C206.64,173.31,204.83,159.1,207.32,152.4z"/>
		</g>
	</g>
	<g>
		<path class="st1" d="M357.95,40.37C342.21,16.87,318,0,280.98,0C244.62,0,219.45,17.68,204,40.37c-2.12,3.11-6.22,7.99-6.16,10.95
			c0.06,2.48,3.5,7.97,5.82,11.63c15.51,24.61,42.22,43.36,82.78,40.37c10.3-0.76,18.91-2.77,27.02-5.82
			c19.33-7.25,33.91-19.7,44.82-35.93c2.23-3.31,5.86-8.38,5.82-10.61C364.05,48.1,359.97,43.4,357.95,40.37z M218.03,51.32
			c11.35-18.64,30.76-29.23,59.53-30.45c-17.05,2.83-29.92,14.45-28.05,34.55c1.36,14.55,11.83,23.48,25.66,26.34
			C247.69,81.4,228.97,69.34,218.03,51.32z M281.66,61.93c-14.15,2.13-15.53-18.38-4.11-20.52c4.83-0.91,10.76,1.69,12.32,6.5
			c2.45,7.61-2.25,12.68-7.87,13.68C282,61.59,281.88,61.89,281.66,61.93z M284.74,82.11c24.01-2.48,34.22-35.22,17.11-52.34
			c-5.3-5.3-11.16-7.49-18.48-8.55c-0.86-0.12-2.68-0.24-3.07-0.34c-2.13-0.53,1.52-0.34,1.02-0.34
			c28.79,0.21,50.65,11.63,61.24,31.13C331.09,69.61,312.48,80.42,284.74,82.11z"/>
	</g>
</g>
</svg>
