<?xml version="1.0" encoding="utf-8"?>
<!-- Generator: Adobe Illustrator 23.1.0, SVG Export Plug-In . SVG Version: 6.00 Build 0)  -->
<svg version="1.1" id="Слой_1" xmlns="http://www.w3.org/2000/svg" xmlns:xlink="http://www.w3.org/1999/xlink" x="0px" y="0px"
	 viewBox="0 0 133 46" style="enable-background:new 0 0 133 46;" xml:space="preserve">
<style type="text/css">
	.st0{fill:#484442;}
	.st1{fill:#42A435;}
	.st2{enable-background:new    ;}
	.st3{fill:#9EA2A7;}
</style>
<rect x="9.4" y="16.3" class="st0" width="13.3" height="13.3"/>
<rect x="13.4" y="20.3" class="st1" width="5.4" height="5.4"/>
<rect x="22.7" y="16.3" class="st1" width="13.3" height="13.3"/>
<rect x="26.7" y="20.3" class="st0" width="5.4" height="5.4"/>
<g class="st2">
	<path class="st3" d="M12.8,36.5h-0.5v-3.7h-2.2v3.7H9.5v-4.1h3.3V36.5z"/>
	<path class="st3" d="M16.1,36.5h-0.5v-2.6h-1.1l0,1.3c0,1-0.4,1.3-0.8,1.3c-0.1,0-0.3,0-0.4-0.1v-0.4c0.1,0,0.2,0,0.3,0
		c0.2,0,0.4-0.2,0.4-0.8l0.1-1.8h2V36.5z"/>
	<path class="st3" d="M19.5,36.5c-0.1,0-0.2,0.1-0.3,0.1c-0.3,0-0.4-0.2-0.4-0.4c-0.3,0.3-0.6,0.5-1.1,0.5c-0.6,0-1-0.3-1-0.8
		c0-0.5,0.4-0.8,1.1-0.9c0.7-0.1,1-0.1,1-0.5c0-0.3-0.2-0.5-0.7-0.5c-0.5,0-0.7,0.2-0.7,0.6h-0.5c0-0.6,0.5-1,1.3-1
		c0.4,0,0.7,0.1,0.9,0.3c0.2,0.2,0.2,0.5,0.2,0.8c0,0.4,0,0.9,0,1.3c0,0.2,0.1,0.3,0.2,0.3c0,0,0.1,0,0.1,0V36.5z M18,35.1
		c-0.4,0-0.8,0.1-0.8,0.6c0,0.3,0.2,0.5,0.6,0.5c0.5,0,0.9-0.3,0.9-0.7v-0.5C18.5,35,18.3,35.1,18,35.1z"/>
	<path class="st3" d="M21.2,33.9v2.6h-0.5v-2.6h-1.1v-0.4h2.6v0.4H21.2z"/>
	<path class="st3" d="M25.5,36.5c-0.2,0-0.5-0.2-0.6-0.3h0v1.4h-0.5v-1.4h0c-0.1,0.1-0.4,0.3-0.6,0.3c-0.9,0-1.2-0.8-1.2-1.6
		c0-0.9,0.5-1.5,1.2-1.5c0.3,0,0.6,0.2,0.7,0.3h0v-1.4h0.5v1.4h0c0.1-0.2,0.4-0.3,0.7-0.3c0.7,0,1.2,0.6,1.2,1.5
		C26.7,35.8,26.4,36.5,25.5,36.5z M24.3,34.2c-0.1-0.3-0.4-0.4-0.6-0.4c-0.5,0-0.7,0.5-0.7,1.1c0,0.6,0.2,1.2,0.8,1.2
		c0.3,0,0.5-0.2,0.6-0.4V34.2z M25.4,33.8c-0.2,0-0.5,0.1-0.6,0.4v1.5c0,0.2,0.3,0.4,0.6,0.4c0.6,0,0.8-0.6,0.8-1.2
		C26.2,34.3,26,33.8,25.4,33.8z"/>
	<path class="st3" d="M30,35c0,1-0.5,1.6-1.4,1.6c-0.9,0-1.5-0.6-1.5-1.6s0.6-1.6,1.5-1.6C29.5,33.4,30,34,30,35z M27.6,35
		c0,0.7,0.4,1.2,1,1.2c0.6,0,0.9-0.4,0.9-1.2c0-0.7-0.4-1.2-0.9-1.2S27.6,34.3,27.6,35z"/>
	<path class="st3" d="M31.1,33.9c0.2-0.4,0.6-0.5,1-0.5c0.8,0,1.4,0.6,1.4,1.6c0,1-0.5,1.6-1.3,1.6c-0.4,0-0.7-0.1-1-0.5v1.6h-0.5
		v-4.1h0.5V33.9z M31.1,35c0,0.7,0.4,1.2,0.9,1.2c0.6,0,0.9-0.4,0.9-1.2c0-0.7-0.3-1.2-0.9-1.2C31.4,33.8,31.1,34.2,31.1,35z"/>
	<path class="st3" d="M36.8,36.5v-2.4h0l-0.9,2.4h-0.5l-0.9-2.4h0v2.4H34v-3h0.7l0.9,2.4h0l0.9-2.4h0.7v3H36.8z"/>
	<path class="st3" d="M40.7,36.5c-0.1,0-0.2,0.1-0.3,0.1c-0.3,0-0.4-0.2-0.4-0.4c-0.3,0.3-0.6,0.5-1.1,0.5c-0.6,0-1-0.3-1-0.8
		c0-0.5,0.4-0.8,1.1-0.9c0.7-0.1,1-0.1,1-0.5c0-0.3-0.2-0.5-0.7-0.5c-0.5,0-0.7,0.2-0.7,0.6H38c0-0.6,0.5-1,1.3-1
		c0.4,0,0.7,0.1,0.9,0.3c0.2,0.2,0.2,0.5,0.2,0.8c0,0.4,0,0.9,0,1.3c0,0.2,0.1,0.3,0.2,0.3c0,0,0.1,0,0.1,0V36.5z M39.2,35.1
		c-0.4,0-0.8,0.1-0.8,0.6c0,0.3,0.2,0.5,0.6,0.5c0.5,0,0.9-0.3,0.9-0.7v-0.5C39.7,35,39.4,35.1,39.2,35.1z"/>
	<path class="st3" d="M42.7,36.5v-3h2.5v3h-0.5v-2.6h-1.5v2.6H42.7z"/>
	<path class="st3" d="M46.4,33.9c0.2-0.4,0.6-0.5,1-0.5c0.8,0,1.4,0.6,1.4,1.6c0,1-0.5,1.6-1.3,1.6c-0.4,0-0.7-0.1-1-0.5v1.6H46
		v-4.1h0.5V33.9z M46.4,35c0,0.7,0.4,1.2,0.9,1.2c0.6,0,0.9-0.4,0.9-1.2c0-0.7-0.3-1.2-0.9-1.2C46.8,33.8,46.4,34.2,46.4,35z"/>
	<path class="st3" d="M52.1,35c0,1-0.5,1.6-1.4,1.6c-0.9,0-1.5-0.6-1.5-1.6s0.6-1.6,1.5-1.6S52.1,34,52.1,35z M49.8,35
		c0,0.7,0.4,1.2,1,1.2c0.6,0,0.9-0.4,0.9-1.2c0-0.7-0.4-1.2-0.9-1.2C50.1,33.8,49.8,34.3,49.8,35z"/>
	<path class="st3" d="M55.1,37.4v-1h-2.3v1h-0.5V36h0.3c0.2-0.3,0.4-1.2,0.4-1.9v-0.6h2.1V36h0.4v1.4H55.1z M54.6,33.9h-1.2v0.2
		c0,0.7-0.2,1.6-0.3,1.9h1.5V33.9z"/>
	<path class="st3" d="M58.6,36.5c-0.1,0-0.2,0.1-0.3,0.1c-0.3,0-0.4-0.2-0.4-0.4c-0.3,0.3-0.6,0.5-1.1,0.5c-0.6,0-1-0.3-1-0.8
		c0-0.5,0.4-0.8,1.1-0.9c0.7-0.1,1-0.1,1-0.5c0-0.3-0.2-0.5-0.7-0.5c-0.5,0-0.7,0.2-0.7,0.6h-0.5c0-0.6,0.5-1,1.3-1
		c0.4,0,0.7,0.1,0.9,0.3c0.2,0.2,0.2,0.5,0.2,0.8c0,0.4,0,0.9,0,1.3c0,0.2,0.1,0.3,0.2,0.3c0,0,0.1,0,0.1,0V36.5z M57.1,35.1
		c-0.4,0-0.8,0.1-0.8,0.6c0,0.3,0.2,0.5,0.6,0.5c0.5,0,0.9-0.3,0.9-0.7v-0.5C57.6,35,57.4,35.1,57.1,35.1z"/>
	<path class="st3" d="M59.3,36.5h-0.6l1.3-1.8l-1.1-1.2h0.6l1.2,1.4h0v-1.4h0.5v1.4h0l1.2-1.4H63l-1.1,1.2l1.3,1.8h-0.6l-1-1.4
		l-0.4,0.4v1.1h-0.5v-1.1L60.3,35L59.3,36.5z"/>
	<path class="st3" d="M63.6,36.5v-3h0.5v2.4h0l1.3-2.4h0.6v3h-0.5V34h0l-1.3,2.4H63.6z"/>
	<path class="st3" d="M69.9,32.4c0.4,0,0.6,0,0.7-0.2h0.5c-0.1,0.6-0.7,0.6-1.3,0.6c-0.7,0-1,0.6-1.1,1.3h0c0.2-0.4,0.6-0.7,1-0.7
		c0.8,0,1.4,0.6,1.4,1.5c0,1-0.5,1.6-1.4,1.6c-0.7,0-1.3-0.4-1.4-1.2c0-0.2,0-0.3,0-0.5c0-0.6,0.1-1.3,0.4-1.7
		C69,32.6,69.3,32.5,69.9,32.4z M69.8,36.1c0.6,0,0.9-0.4,0.9-1.1c0-0.7-0.3-1.1-0.9-1.1s-0.9,0.4-0.9,1.1
		C68.8,35.7,69.2,36.1,69.8,36.1z"/>
	<path class="st3" d="M71.7,36.5v-3h0.5v2.4h0l1.3-2.4h0.6v3h-0.5V34h0l-1.3,2.4H71.7z"/>
	<path class="st3" d="M77.5,36.5H77v-2.6h-1.1l0,1.3c0,1-0.4,1.3-0.8,1.3c-0.1,0-0.3,0-0.4-0.1v-0.4c0.1,0,0.2,0,0.3,0
		c0.2,0,0.4-0.2,0.4-0.8l0.1-1.8h2V36.5z"/>
	<path class="st3" d="M79.4,36.6C78.6,36.6,78,36,78,35c0-1,0.6-1.6,1.4-1.6c1,0,1.4,0.8,1.4,1.6v0.1h-2.3l0,0c0,0.6,0.4,1,0.9,1
		c0.4,0,0.7-0.2,0.8-0.6h0.5C80.6,36.2,80.1,36.6,79.4,36.6z M79.4,33.8c-0.5,0-0.8,0.3-0.9,0.9h1.7C80.2,34.1,79.9,33.8,79.4,33.8z
		"/>
	<path class="st3" d="M82.4,33.9v2.6h-0.5v-2.6h-1.1v-0.4h2.6v0.4H82.4z"/>
	<path class="st3" d="M86.5,35c0,1-0.5,1.6-1.4,1.6c-0.9,0-1.5-0.6-1.5-1.6s0.6-1.6,1.5-1.6S86.5,34,86.5,35z M84.1,35
		c0,0.7,0.4,1.2,1,1.2c0.6,0,0.9-0.4,0.9-1.2c0-0.7-0.4-1.2-0.9-1.2C84.5,33.8,84.1,34.3,84.1,35z"/>
	<path class="st3" d="M87.1,33.5h1.4c0.5,0,1,0.1,1,0.7c0,0.3-0.2,0.5-0.4,0.6v0c0.3,0.1,0.6,0.3,0.6,0.7c0,0.5-0.4,0.9-0.9,0.9
		h-1.6V33.5z M89,34.3c0-0.3-0.1-0.4-0.6-0.4h-0.9v0.8h0.9C88.8,34.7,89,34.5,89,34.3z M87.6,36h1.1c0.3,0,0.5-0.2,0.5-0.5
		c0-0.3-0.2-0.4-0.6-0.4h-1V36z"/>
</g>
<g class="st2">
	<path class="st3" d="M94.6,33.9H94v1.7c0,0.3,0,0.4,0.3,0.4c0.1,0,0.2,0,0.3,0v0.4c-0.2,0-0.2,0-0.4,0c-0.7,0-0.7-0.4-0.7-1v-1.6
		H93v-0.4h0.5v-0.9H94v0.9h0.6V33.9z"/>
	<path class="st3" d="M96.4,36.6C95.5,36.6,95,36,95,35c0-1,0.6-1.6,1.4-1.6c1,0,1.4,0.8,1.4,1.6v0.1h-2.2l0,0c0,0.6,0.4,1,0.9,1
		c0.4,0,0.7-0.2,0.8-0.6h0.5C97.6,36.2,97.1,36.6,96.4,36.6z M96.4,33.8c-0.5,0-0.8,0.3-0.9,0.9h1.7C97.2,34.1,96.9,33.8,96.4,33.8z
		"/>
	<path class="st3" d="M98.8,36.5h-0.5v-4.1h0.5V36.5z"/>
	<path class="st3" d="M100.8,36.6c-0.9,0-1.4-0.6-1.4-1.6c0-1,0.6-1.6,1.4-1.6c1,0,1.4,0.8,1.4,1.6v0.1h-2.2l0,0c0,0.6,0.4,1,0.9,1
		c0.4,0,0.7-0.2,0.8-0.6h0.5C102,36.2,101.5,36.6,100.8,36.6z M100.8,33.8c-0.5,0-0.8,0.3-0.9,0.9h1.7
		C101.6,34.1,101.3,33.8,100.8,33.8z"/>
	<path class="st3" d="M105.3,36.1c0,0.5,0,0.8-0.2,1c-0.2,0.4-0.6,0.5-1.2,0.5c-0.6,0-1.2-0.2-1.3-0.9h0.5c0.1,0.3,0.3,0.5,0.8,0.5
		c0.6,0,0.9-0.3,0.9-1l0-0.4c-0.2,0.4-0.5,0.5-1,0.5c-0.8,0-1.3-0.6-1.3-1.5c0-0.8,0.4-1.6,1.3-1.6c0.4,0,0.8,0.2,0.9,0.5v-0.4h0.5
		V36.1z M103,35c0,0.7,0.3,1.1,0.9,1.1c0.5,0,0.9-0.4,0.9-1.2c0-0.7-0.3-1.1-0.9-1.1C103.3,33.8,103,34.3,103,35z"/>
	<path class="st3" d="M107.5,33.9c-0.1,0-0.1,0-0.1,0c-0.8,0-1,0.6-1,1.3v1.3H106v-3h0.5v0.6c0.2-0.5,0.6-0.7,1.1-0.7V33.9z"/>
	<path class="st3" d="M109.1,36.6c-0.9,0-1.4-0.6-1.4-1.6c0-1,0.6-1.6,1.4-1.6c1,0,1.4,0.8,1.4,1.6v0.1h-2.2l0,0c0,0.6,0.4,1,0.9,1
		c0.4,0,0.7-0.2,0.8-0.6h0.5C110.2,36.2,109.8,36.6,109.1,36.6z M109,33.8c-0.5,0-0.8,0.3-0.9,0.9h1.7
		C109.9,34.1,109.5,33.8,109,33.8z"/>
	<path class="st3" d="M112.2,36.6c-0.9,0-1.4-0.6-1.4-1.6c0-1,0.6-1.6,1.4-1.6c1,0,1.4,0.8,1.4,1.6v0.1h-2.3l0,0c0,0.6,0.4,1,0.9,1
		c0.4,0,0.7-0.2,0.8-0.6h0.5C113.3,36.2,112.9,36.6,112.2,36.6z M112.2,33.8c-0.5,0-0.8,0.3-0.9,0.9h1.7
		C113,34.1,112.6,33.8,112.2,33.8z"/>
	<path class="st3" d="M114.5,33.9c0.2-0.4,0.6-0.5,1-0.5c0.7,0,1,0.4,1,1.1v2H116v-1.8c0-0.5,0-0.9-0.6-0.9c-0.6,0-0.9,0.5-0.9,1.1
		v1.6H114v-3h0.5V33.9z"/>
	<path class="st3" d="M118,36.5h-0.6v-0.6h0.6V36.5z"/>
	<path class="st3" d="M120.4,33.9c-0.1,0-0.1,0-0.1,0c-0.8,0-1,0.6-1,1.3v1.3h-0.5v-3h0.5v0.6c0.2-0.5,0.6-0.7,1.1-0.7V33.9z"/>
	<path class="st3" d="M123.3,36.5h-0.5V36c-0.3,0.4-0.6,0.6-1,0.6c-0.6,0-1-0.4-1-1v-2.1h0.5v1.9c0,0.4,0.1,0.7,0.6,0.7
		c0.6,0,0.9-0.5,0.9-1.1v-1.6h0.5V36.5z"/>
</g>
<g>
	<g>
		<g>
			<path class="st0" d="M43.4,29.4V18.9h-4.3v-2.1h11.6v2.1h-4.3v10.5H43.4z"/>
		</g>
		<g>
			<path class="st0" d="M55.7,26.5l2.8,0.4c-0.4,0.9-0.9,1.6-1.7,2c-0.8,0.5-1.7,0.7-2.9,0.7c-1.8,0-3.2-0.5-4.1-1.6
				c-0.7-0.8-1-1.9-1-3.2c0-1.5,0.5-2.7,1.4-3.6c0.9-0.9,2.1-1.3,3.5-1.3c1.6,0,2.8,0.5,3.7,1.3c0.9,0.9,1.3,2.3,1.3,4.1h-7
				c0,0.7,0.2,1.3,0.7,1.7c0.4,0.4,1,0.6,1.6,0.6c0.4,0,0.8-0.1,1.1-0.3C55.3,27.3,55.6,26.9,55.7,26.5z M55.9,24
				c0-0.7-0.2-1.2-0.6-1.6c-0.4-0.4-0.9-0.5-1.4-0.5c-0.6,0-1.1,0.2-1.5,0.6c-0.4,0.4-0.6,0.9-0.6,1.6L55.9,24L55.9,24z"/>
			<path class="st0" d="M59.5,29.4V16.8h2.8v12.6H59.5z"/>
			<path class="st0" d="M69.8,26.5l2.8,0.4c-0.4,0.9-0.9,1.6-1.7,2c-0.8,0.5-1.7,0.7-2.9,0.7c-1.8,0-3.2-0.5-4.1-1.6
				c-0.7-0.8-1-1.9-1-3.2c0-1.5,0.5-2.7,1.4-3.6c0.9-0.9,2.1-1.3,3.5-1.3c1.6,0,2.8,0.5,3.7,1.3c0.9,0.9,1.3,2.3,1.3,4.1h-7
				c0,0.7,0.2,1.3,0.7,1.7c0.4,0.4,1,0.6,1.6,0.6c0.4,0,0.8-0.1,1.1-0.3C69.4,27.3,69.6,26.9,69.8,26.5z M69.9,24
				c0-0.7-0.2-1.2-0.6-1.6c-0.4-0.4-0.9-0.5-1.4-0.5c-0.6,0-1.1,0.2-1.5,0.6c-0.4,0.4-0.6,0.9-0.6,1.6L69.9,24L69.9,24z"/>
		</g>
		<g>
			<path class="st1" d="M80.3,24.8v-2.1h6.3v5c-0.6,0.5-1.5,1-2.7,1.4c-1.2,0.4-2.3,0.6-3.5,0.6c-1.5,0-2.8-0.3-4-0.8
				c-1.1-0.6-2-1.3-2.5-2.4c-0.6-1-0.9-2.2-0.9-3.4c0-1.3,0.3-2.5,1-3.5c0.6-1,1.6-1.8,2.8-2.4c0.9-0.4,2.1-0.6,3.5-0.6
				c1.8,0,3.2,0.3,4.2,1c1,0.7,1.7,1.6,2,2.7l-2.9,0.5c-0.2-0.6-0.6-1.1-1.2-1.5c-0.6-0.4-1.3-0.5-2.1-0.5c-1.3,0-2.3,0.4-3.1,1.1
				c-0.8,0.7-1.1,1.8-1.1,3.1c0,1.5,0.4,2.6,1.2,3.4c0.8,0.7,1.8,1.1,3,1.1c0.6,0,1.2-0.1,1.9-0.3c0.6-0.2,1.1-0.5,1.6-0.8v-1.6
				L80.3,24.8L80.3,24.8z"/>
			<path class="st1" d="M90.6,29.4h-2.8v-9.1h2.6v1.3c0.4-0.6,0.8-1,1.2-1.2c0.4-0.2,0.8-0.3,1.2-0.3c0.6,0,1.2,0.2,1.8,0.5
				l-0.9,2.1c-0.5-0.3-0.9-0.4-1.3-0.4c-0.4,0-0.7,0.1-1,0.3c-0.3,0.2-0.5,0.5-0.6,1c-0.2,0.5-0.2,1.5-0.2,3.1V29.4z"/>
			<path class="st1" d="M100.5,26.5l2.8,0.4c-0.4,0.9-0.9,1.6-1.7,2c-0.8,0.5-1.7,0.7-2.9,0.7c-1.8,0-3.2-0.5-4.1-1.6
				c-0.7-0.8-1-1.9-1-3.2c0-1.5,0.5-2.7,1.4-3.6c0.9-0.9,2.1-1.3,3.5-1.3c1.6,0,2.8,0.5,3.7,1.3c0.9,0.9,1.3,2.3,1.3,4.1h-7
				c0,0.7,0.2,1.3,0.7,1.7c0.4,0.4,1,0.6,1.6,0.6c0.4,0,0.8-0.1,1.1-0.3C100.1,27.3,100.3,26.9,100.5,26.5z M100.6,24
				c0-0.7-0.2-1.2-0.6-1.6c-0.4-0.4-0.9-0.5-1.4-0.5c-0.6,0-1.1,0.2-1.5,0.6c-0.4,0.4-0.6,0.9-0.6,1.6L100.6,24L100.6,24z"/>
			<path class="st1" d="M110.3,26.5l2.8,0.4c-0.4,0.9-0.9,1.6-1.7,2c-0.8,0.5-1.7,0.7-2.9,0.7c-1.8,0-3.2-0.5-4.1-1.6
				c-0.7-0.8-1-1.9-1-3.2c0-1.5,0.5-2.7,1.4-3.6c0.9-0.9,2.1-1.3,3.5-1.3c1.6,0,2.8,0.5,3.7,1.3c0.9,0.9,1.3,2.3,1.3,4.1h-7
				c0,0.7,0.2,1.3,0.7,1.7c0.4,0.4,1,0.6,1.6,0.6c0.4,0,0.8-0.1,1.1-0.3C109.9,27.3,110.2,26.9,110.3,26.5z M110.5,24
				c0-0.7-0.2-1.2-0.6-1.6c-0.4-0.4-0.9-0.5-1.4-0.5c-0.6,0-1.1,0.2-1.5,0.6c-0.4,0.4-0.6,0.9-0.6,1.6L110.5,24L110.5,24z"/>
			<path class="st1" d="M123.7,29.4h-2.8v-4.7c0-1-0.1-1.6-0.2-1.9c-0.1-0.3-0.3-0.5-0.6-0.7c-0.3-0.2-0.6-0.2-1-0.2
				c-0.5,0-0.9,0.1-1.3,0.3c-0.4,0.2-0.6,0.5-0.8,0.9c-0.1,0.4-0.2,1.1-0.2,2.1v4.1h-2.8v-9.1h2.6v1.3c0.9-1,2.1-1.6,3.5-1.6
				c0.6,0,1.2,0.1,1.7,0.3c0.5,0.2,0.9,0.4,1.2,0.7c0.3,0.3,0.4,0.6,0.5,1c0.1,0.4,0.2,0.9,0.2,1.6L123.7,29.4L123.7,29.4z"/>
		</g>
	</g>
</g>
</svg>
