<svg xmlns="http://www.w3.org/2000/svg" width="64" height="59.97" viewBox="0 0 64 59.97">
  <defs>
    <style>
      .cls-1 {
        fill: #fff;
        fill-rule: evenodd;
      }
    </style>
  </defs>
  <path id="Icon" class="cls-1" d="M1077.68,1666.8h-53.34a5.4,5.4,0,0,1-5.33-5.45v-40.89a5.4,5.4,0,0,1,5.33-5.46h53.34a5.4,5.4,0,0,1,5.33,5.46v40.89a5.4,5.4,0,0,1-5.33,5.45h0Zm-53.34-49.07a2.7,2.7,0,0,0-2.67,2.73v40.89a2.7,2.7,0,0,0,2.67,2.72h53.34a2.7,2.7,0,0,0,2.67-2.72v-40.89a2.7,2.7,0,0,0-2.67-2.73h-53.34Zm45.34,57.25h-37.34a1.365,1.365,0,0,1,0-2.73h37.34a1.365,1.365,0,0,1,0,2.73h0Zm-9.31,0h-18.69a1.342,1.342,0,0,1-1.09-.57,1.411,1.411,0,0,1-.18-1.23l2.67-8.18a1.339,1.339,0,0,1,1.26-.93h13.34a1.339,1.339,0,0,1,1.26.93l2.59,7.94a1.389,1.389,0,0,1,.17.67,1.345,1.345,0,0,1-1.33,1.37h0Zm-16.84-2.73h14.96l-1.77-5.45H1045.3l-1.77,5.45h0Zm34.15-16.36h-53.34v-35.43h53.34v35.43h0Zm-50.67-2.72h48v-29.99h-48v29.99h0Zm24,4.09a2.726,2.726,0,1,1-2.67,2.72A2.7,2.7,0,0,1,1051.01,1657.26Z" transform="translate(-1019 -1615)"/>
</svg>
