<?xml version="1.0" encoding="utf-8"?>
<!-- Generator: Adobe Illustrator 23.1.0, SVG Export Plug-In . SVG Version: 6.00 Build 0)  -->
<svg version="1.1" id="Layer_1" xmlns="http://www.w3.org/2000/svg" xmlns:xlink="http://www.w3.org/1999/xlink" x="0px" y="0px"
	 viewBox="0 0 259.51 271.38" style="enable-background:new 0 0 259.51 271.38;" xml:space="preserve">
<style type="text/css">
	.st0{display:none;fill-rule:evenodd;clip-rule:evenodd;fill:#616160;}
	.st1{fill-rule:evenodd;clip-rule:evenodd;fill:#FFFFFF;}
</style>
<rect x="-121.59" y="-39.82" class="st0" width="560.18" height="439.12"/>
<g>
	<g>
		<path class="st1" d="M142.52,253.49c-0.35-1.67,1.64-4.09,2.92-6.16c1.29-2.1,2.69-4.43,4.22-5.84c24.49,0,48.04,0,73.35,0
			c6.74,0,19.76,1.26,22.71-1.62c1.83-1.77,1.62-9.46,1.62-12.66c0-66.31,0-132.6,0-199.92c0-4.63,0.49-11.61-1.62-13.63
			c-2.82-2.69-14.53-1.62-21.42-1.62c-46.73,0-89.84,0-136.64,0c-6.23,0-18-1.29-21.09,1.62c-3.19,3.01-1.62,16.83-1.62,23.7
			c0,25.53,0,50.35,0,75.29c-4.26,0.17-7.84,1.04-12.01,1.29c0-23.25,0-52.13,0-77.89c0-8.44-1.09-18.71,1.29-24.67
			c2.3-5.73,8.15-10.34,14.61-11.04c7.12-0.77,14.96,0,22.39,0c44.38,0,88.65,0,134.36,0c7.4,0,16.28-0.93,21.42,0.65
			c4.79,1.47,9.82,6.38,11.36,11.36c1.98,6.38,0.65,18.66,0.65,28.24c0,57.78,0,113.47,0,172.02c0,8.98,1.43,20.53-0.65,27.91
			c-1.63,5.82-6.15,10.37-11.36,12.01c-7.2,2.27-16.88,0.97-25.64,0.97C194.38,253.49,170.39,253.49,142.52,253.49z"/>
		<path class="st1" d="M77.29,24.68c52.68,0,105.37,0,158.05,0c0,14.06,0,28.13,0,42.19c-52.79,0-105.59,0-158.38,0
			c0-13.74,0-27.48,0-41.22C76.93,25.19,76.91,24.74,77.29,24.68z M82.8,31.81c0,9.73,0,19.48,0,29.21c48.9,0,97.8,0,146.69,0
			c0-10.06,0-20.12,0-30.18c-48.79,0-97.58,0-146.37,0C82.75,30.9,82.77,31.36,82.8,31.81z"/>
		<path class="st1" d="M76.96,112.63c1.46-7.33-3.18-22.37,2.92-24.02c3.9-1.05,9.75,0,14.61,0c4.23,0,11.31-1.03,13.3,0.97
			c2.09,2.09,0.97,9.8,0.97,13.95c0,3.67,1.07,11.59-0.97,13.63c-3.25,3.25-11.51-1.04-14.93-1.94
			C87.27,113.75,82.68,113.03,76.96,112.63z M82.8,94.46c0,5.95,0,11.9,0,17.85c6.71,0,13.42,0,20.12,0c0-5.95,0-11.9,0-17.85
			C96.22,94.46,89.51,94.46,82.8,94.46z"/>
		<path class="st1" d="M174.33,116.2c-2.79,3.01-9.65,1.94-15.58,1.94c-5.93,0-12.79,1.07-15.58-1.94c-0.57-3.3-0.32-8-0.32-12.98
			c0-5.92-1.36-13.4,2.92-14.61c3.37-0.94,9.86,0,13.95,0c2.95,0,10.78-1.04,13.3,0.65c2.48,1.65,1.62,8.73,1.62,12.98
			C174.65,107.66,174.9,112.22,174.33,116.2z M148.69,94.46c0,5.95,0,11.9,0,17.85c6.71,0,13.42,0,20.12,0c0-5.95,0-11.9,0-17.85
			C162.11,94.46,155.4,94.46,148.69,94.46z"/>
		<path class="st1" d="M233.72,116.2c-2.79,3.01-9.65,1.94-15.58,1.94c-5.93,0-12.79,1.07-15.58-1.94
			c-0.75-7.69-0.12-16.76-0.32-24.99c1.82-3.93,10.01-2.6,17.52-2.6c4.17,0,11.67-0.66,13.3,0.97c2.27,2.27,0.97,9.58,0.97,12.98
			C234.04,107.77,234.3,112.31,233.72,116.2z M208.08,94.46c0,5.95,0,11.9,0,17.85c6.71,0,13.42,0,20.12,0c0-5.95,0-11.9,0-17.85
			C221.49,94.46,214.79,94.46,208.08,94.46z"/>
		<path class="st1" d="M68.52,130.15c21.88-0.81,40,8.64,51.27,19.48c10.96,10.53,20.91,27.66,21.74,48.69
			c0.92,22.94-8.5,39.01-19.8,50.95c-11.52,12.19-26.91,21.21-48.36,22.07c-21.34,0.85-39.2-8-51.27-19.48
			C9.97,240.33,0.71,224.99,0.04,203.51c-0.74-23.61,8.05-39.41,19.15-51.6c5.26-5.77,12.47-11.08,20.45-14.93
			C47.43,133.21,58.23,130.55,68.52,130.15z M26.65,161.64c-7.85,8.63-16.16,23.39-14.93,42.51c1.02,15.79,8.28,30.15,18.17,39.27
			c9.73,8.98,23.52,16.34,41.22,16.23c32.16-0.21,57.55-25.09,58.42-56.48c0.51-18.37-7.13-33.16-15.26-42.19
			c-10.06-11.18-26.69-20.74-49.01-18.83C47.7,143.67,35.48,151.93,26.65,161.64z"/>
		<path class="st1" d="M174.33,169.11c-2.62,4.96-13.52,1.63-20.12,2.6c-0.63-1.96-1.25-3.94-2.28-5.51
			c4.87-0.76,11.14-0.11,16.55-0.32c0.76-5.3,0.11-12.01,0.32-17.85c-6.71,0-13.42,0-20.12,0c0,3.57,0,7.14,0,10.71
			c-1.53-4.69-9.44-9.32-5.19-15.26c2.15-3.01,10.75-1.62,17.52-1.62c5,0,10.92-0.6,12.66,1.29c2.11,2.3,0.97,9.42,0.97,12.66
			C174.65,160.93,174.91,165.27,174.33,169.11z"/>
		<path class="st1" d="M206.14,142.16c3.78-0.86,8.68-0.32,14.61-0.32c3.59,0,10.96-0.75,12.66,1.62c1.72,2.4,0.65,13.97,0.65,20.12
			c0,16.28,0,23.56,0,40.89c0,3.63,1.23,16.99-0.97,19.48c-2.63,2.98-11.96,1.29-15.26,1.29c-4.64,0-13.15,0.99-14.93-1.62
			c-1.75-2.57-0.65-15.95-0.65-19.8c0-16.82,0-33.66,0-50.95C202.24,146.22,201.17,143.3,206.14,142.16z M208.08,148.98
			c0,23.37,0,46.73,0,70.1c6.71,0,13.42,0,20.12,0c0-23.7,0-47.38,0-71.08c-6.6,0-13.2,0-19.8,0
			C208.02,148.06,208.06,148.52,208.08,148.98z"/>
		<path class="st1" d="M174.65,222.66c-2.57,4.56-12.41,1.88-18.83,2.6c0.3-2.29,0.79-4.4,1.62-6.16c3.78,0,7.57,0,11.36,0
			c0-5.84,0-11.69,0-17.52c-3.25,0-6.5,0-9.73,0c0.32-1.94-0.71-5.26,0.65-6.16c5.13,0.85,11.79-2.46,13.63,0.97
			C175.73,200.78,174.95,219.09,174.65,222.66z"/>
	</g>
	<path class="st1" d="M69.13,203.17c-0.75,1.31-0.11,4-0.32,5.84c7.14,0,14.28,0,21.42,0c0,2.49,0,4.98,0,7.47
		c-7.03,0-14.06,0-21.09,0c-0.35,2.53,0.04,4.11,0,7.79c-3.11-0.01-9.88-0.03-12.66,0.32c0-2.6,0-5.19,0-7.79
		c-2.28-0.76-5.95-0.11-8.76-0.32c0-2.49,0-4.98,0-7.47c2.81,0,5.63,0,8.44,0c0.75-1.31,0.11-4,0.32-5.84c-2.92,0-5.84,0-8.76,0
		c-0.16-1.43,0.1-5.02,0-7.47c2.81,0,5.63,0,8.44,0c0.61-6.93-0.38-14.64,0-23.05c16.63-0.06,34.68-2.5,36.68,12.01
		C94.55,197.14,85.37,205.19,69.13,203.17z M79.19,185c-1.66-2.69-5.42-2.72-10.39-2.6c0.2,4.34-0.41,9.51,0.32,13.3
		C76.88,197.48,83.04,191.22,79.19,185z"/>
</g>
</svg>
