<?xml version="1.0" encoding="utf-8"?>
<!-- Generator: Adobe Illustrator 23.1.0, SVG Export Plug-In . SVG Version: 6.00 Build 0)  -->
<svg version="1.1" id="Слой_1" xmlns="http://www.w3.org/2000/svg" xmlns:xlink="http://www.w3.org/1999/xlink" x="0px" y="0px"
	 viewBox="0 0 103.31 64.57" style="enable-background:new 0 0 103.31 64.57;" xml:space="preserve">
<style type="text/css">
	.st0{fill:#484543;}
	.st1{fill:#44A535;}
</style>
<g>
	<path class="st0" d="M0,0c17.22,2.15,34.44,4.3,51.65,6.46c0,17.22,0,34.44,0,51.65C34.44,60.26,17.22,62.42,0,64.57
		C0,43.05,0,21.52,0,0z"/>
	<path class="st1" d="M15.45,20.08c6.93,0.35,13.87,0.7,20.8,1.05c0,7.45,0,14.9,0,22.35c-6.93,0.35-13.87,0.7-20.8,1.05
		C15.45,36.38,15.45,28.23,15.45,20.08z"/>
	<path class="st1" d="M51.65,6.46c17.22,2.15,34.44,4.3,51.65,6.46c0,12.91,0,25.83,0,38.74c-17.22,2.15-34.44,4.3-51.65,6.46
		C51.65,40.89,51.65,23.67,51.65,6.46z"/>
	<path class="st0" d="M67.1,22.68c6.93,0.35,13.87,0.7,20.8,1.05c0,5.72,0,11.43,0,17.15c-6.93,0.35-13.87,0.7-20.8,1.05
		C67.1,35.51,67.1,29.09,67.1,22.68z"/>
</g>
</svg>
