<?xml version="1.0" encoding="utf-8"?>
<!-- Generator: Adobe Illustrator 23.1.0, SVG Export Plug-In . SVG Version: 6.00 Build 0)  -->
<svg version="1.1" id="Layer_1" xmlns="http://www.w3.org/2000/svg" xmlns:xlink="http://www.w3.org/1999/xlink" x="0px" y="0px"
	 viewBox="0 0 358.25 271.38" style="enable-background:new 0 0 358.25 271.38;" xml:space="preserve">
<style type="text/css">
	.st0{display:none;fill-rule:evenodd;clip-rule:evenodd;fill:#616160;}
	.st1{fill-rule:evenodd;clip-rule:evenodd;fill:#FFFFFF;}
</style>
<rect x="-72.22" y="-39.82" class="st0" width="560.18" height="439.12"/>
<g>
	<path class="st1" d="M164.75,149.73c0-4.28,0-8.58,0-12.86c19.3-0.1,32.59-6.34,35.61-24.73c1.48-9.03,0-23.38,0-36.6
		c0-29.21,1.75-52.93-19.78-59.35c-9.98-2.98-23.87-0.99-36.6-0.99c-12.83,0-25.29,0-37.59,0c-41.89,0-86.8-9.24-91.99,26.71
		c-1.26,8.74,0,21.77,0,33.63c0,28.52-1.87,51.74,17.8,59.35c8.53,3.29,21.25-0.11,30.66,3.96c2.06,7.5,0.5,18.61,0.99,27.69
		c6.52-2.21,11.11-9.02,17.8-14.84c5.17-4.49,12.57-13.22,18.79-14.84c10.61-2.75,22.03,1.98,36.6,0c0,4.62,0,9.23,0,13.85
		c-12.62,1.57-21.8-2.21-30.66,0c-3.95,0.98-9.68,6.11-13.85,9.89c-8.54,7.74-15.11,15.07-23.74,22.75
		c-3.51,3.13-8.93,8.63-14.84,5.93c-8.25-5.6-2.01-25.69-3.96-37.59c-25.78-1.88-46.06-12.24-49.45-39.56
		c-1.26-10.13,0-23.57,0-36.6c0-30.2-0.59-50.91,14.84-64.29c17.49-15.17,57.5-9.89,92.97-9.89c26.81,0,65.22-4.93,83.08,3.96
		c6.64,3.3,21.07,17.6,22.75,30.66c1.26,9.72,0,25.67,0,40.55c0,18.52,2.04,35.78-1.98,46.49
		C205.82,140.08,187.36,153.18,164.75,149.73z"/>
	<path class="st1" d="M112.32,37.96c7.34,23.66,23.74,70.23,23.74,70.23h-11.87l-7.91-21.76H94.52l-7.91,21.76c0,0-7.25,0-10.88,0
		C83.1,84.24,91.5,61.31,99.47,37.96C103.76,37.96,108.04,37.96,112.32,37.96z M96.5,77.52h18.18l-9.09-27.32L96.5,77.52z"/>
	<path class="st1" d="M193.43,83.46c0,4.28,0,8.58,0,12.86c-19.06-0.88-32.85,8.16-35.61,23.74c-1.52,8.6,0,22.74,0,36.6
		c0,12.87-1.49,27.48,0,36.6c4.48,27.38,28.4,24.73,59.35,24.73c13.42,0,29.06-2.55,39.56,0c5.96,1.44,13.88,9.56,19.78,14.84
		c6.9,6.16,12.12,12.92,17.8,15.83c0.82-9.4-1.93-22.37,1.98-28.68c7.47-4.06,19.05-0.84,26.71-2.97
		c11.2-3.11,19.15-13.29,20.77-26.71c1.84-15.19,1.86-48.54,0-65.28c-1.57-14.16-10.5-26.52-24.73-28.68
		c-29.45-4.49-64.35,3.32-97.92,0c0-4.62,0-9.23,0-13.85c43.57,4.85,101.62-11.6,124.63,12.86c4.83,5.13,10.47,14.47,11.87,23.74
		c1.42,9.45,0,24.02,0,37.59c0,25.83,1.59,45.48-8.9,59.35c-8.03,10.6-22.21,16.51-40.55,15.83c-1.42,12.75,3.18,31.54-2.97,39.56
		c-13.3-0.62-20.01-12.02-27.69-18.79c-8.15-7.19-16.51-13.65-24.73-20.77c-44.95-2.88-84.6,10.24-102.87-19.78
		c-7.29-11.99-5.93-32.21-5.93-55.39c0-12.87-1.71-27.28,0-38.57C147.21,96.7,169.22,78.86,193.43,83.46z"/>
	<path class="st1" d="M235.96,114.12c4.4-0.77,9.89,0.99,9.89,0.99s0.04,7.29-0.99,9.89c8.72,1.62,24.79-2.72,32.64-1.98
		c0,2.97,0,5.93,0,8.9c-11.13,0.08-19.89,2.53-31.65,1.98c-1.68,4.25-2.08,9.79-1.98,15.83c5.02-0.38,16.07,1.31,18.79-2.97
		c2.02-2.51,8.28-2.91,8.9,4.95c14.04,2.45,21.58,18.07,15.83,32.64c-3.93,9.94-17.57,13.1-28.68,14.84c-1-1.97-1.71-4.22-3.96-4.95
		c9.57-4.18,23.9-8.01,23.74-20.77c-0.08-5.95-3.68-10.8-9.89-13.85c-6.26,4.81-10.45,16.5-18.79,23.74
		c-9.07,7.87-33.88,16.93-37.59,0.99c-3.74-16.06,12.58-26.82,22.75-30.66c0-6.26,0-12.53,0-18.79c-5.93,0-11.87,0-17.8,0
		c0-2.97,0-5.93,0-8.9c5.61,0,11.21,0,16.81,0C235.68,123.07,236.08,118.86,235.96,114.12z M244.86,158.63
		c0.11,5.83-0.69,12.56,1.98,15.83c4.24-4.99,8.04-10.42,10.88-16.81C253.51,158.03,247.53,156.68,244.86,158.63z M234.97,161.59
		c-7.53,2.68-18.04,13.76-9.89,22.75c5.86,0.57,9.44-1.12,12.86-2.97C236.77,174.97,236.9,167.25,234.97,161.59z"/>
</g>
</svg>
